REM DIRINDEX 1\3,1\2\4,1\2\5,1\2\6
REM DIRNAME cjc137,folder01,folder02,folder03,folder04,folder05
TITLE ""
FILE "025.mp3" MP3
  TRACK 01 AUDIO
    TITLE "4:cjc137_1011"
    INDEX 01 00:00:00
  TRACK 02 AUDIO
    TITLE "0:"
    INDEX 01 00:01:07
  TRACK 03 AUDIO
    TITLE "6:cjc137_1012"
    INDEX 01 00:01:15
  TRACK 04 AUDIO
    TITLE "0:"
    INDEX 01 00:02:34
  TRACK 05 AUDIO
    TITLE "5:cjc137_1013"
    INDEX 01 00:02:42
  TRACK 06 AUDIO
    TITLE "0:"
    INDEX 01 00:03:47
  TRACK 07 AUDIO
    TITLE "4:cjc137_1014"
    INDEX 01 00:04:58
  TRACK 08 AUDIO
    TITLE "0:"
    INDEX 01 00:05:67
  TRACK 09 AUDIO
    TITLE "6:cjc137_1015"
    INDEX 01 00:06:00
  TRACK 10 AUDIO
    TITLE "0:"
    INDEX 01 00:07:15
  TRACK 11 AUDIO
    TITLE "5:cjc137_1016"
    INDEX 01 00:07:21
  TRACK 12 AUDIO
    TITLE "0:"
    INDEX 01 00:08:30
  TRACK 13 AUDIO
    TITLE "4:cjc137_1017"
    INDEX 01 00:09:42
  TRACK 14 AUDIO
    TITLE "0:"
    INDEX 01 00:10:47
  TRACK 15 AUDIO
    TITLE "6:cjc137_1018"
    INDEX 01 00:10:57
  TRACK 16 AUDIO
    TITLE "0:"
    INDEX 01 00:11:70
  TRACK 17 AUDIO
    TITLE "5:cjc137_1019"
    INDEX 01 00:12:07
  TRACK 18 AUDIO
    TITLE "0:"
    INDEX 01 00:13:12
  TRACK 19 AUDIO
    TITLE "4:cjc137_1020"
    INDEX 01 00:14:21
  TRACK 20 AUDIO
    TITLE "0:"
    INDEX 01 00:15:40
  TRACK 21 AUDIO
    TITLE "6:cjc137_1021"
    INDEX 01 00:15:46
  TRACK 22 AUDIO
    TITLE "0:"
    INDEX 01 00:16:30
  TRACK 23 AUDIO
    TITLE "5:cjc137_1022"
    INDEX 01 00:16:38
  TRACK 24 AUDIO
    TITLE "0:"
    INDEX 01 00:17:53
  TRACK 25 AUDIO
    TITLE "4:cjc137_1023"
    INDEX 01 00:18:62
  TRACK 26 AUDIO
    TITLE "0:"
    INDEX 01 00:19:67
  TRACK 27 AUDIO
    TITLE "6:cjc137_1024"
    INDEX 01 00:20:02
  TRACK 28 AUDIO
    TITLE "0:"
    INDEX 01 00:20:63
  TRACK 29 AUDIO
    TITLE "5:cjc137_1025"
    INDEX 01 00:20:71
  TRACK 30 AUDIO
    TITLE "0:"
    INDEX 01 00:22:01
  TRACK 31 AUDIO
    TITLE "4:cjc137_1026"
    INDEX 01 00:23:10
  TRACK 32 AUDIO
    TITLE "0:"
    INDEX 01 00:24:24
  TRACK 33 AUDIO
    TITLE "6:cjc137_1027"
    INDEX 01 00:24:31
  TRACK 34 AUDIO
    TITLE "0:"
    INDEX 01 00:25:39
  TRACK 35 AUDIO
    TITLE "5:cjc137_1028"
    INDEX 01 00:25:48
  TRACK 36 AUDIO
    TITLE "0:"
    INDEX 01 00:26:58
  TRACK 37 AUDIO
    TITLE "4:cjc137_1029"
    INDEX 01 00:27:71
  TRACK 38 AUDIO
    TITLE "0:"
    INDEX 01 00:28:74
  TRACK 39 AUDIO
    TITLE "6:cjc137_1030"
    INDEX 01 00:29:07
  TRACK 40 AUDIO
    TITLE "0:"
    INDEX 01 00:30:34
  TRACK 41 AUDIO
    TITLE "5:cjc137_1031"
    INDEX 01 00:30:46
  TRACK 42 AUDIO
    TITLE "0:"
    INDEX 01 00:31:53
  TRACK 43 AUDIO
    TITLE "4:cjc137_1032"
    INDEX 01 00:32:62
  TRACK 44 AUDIO
    TITLE "0:"
    INDEX 01 00:33:60
  TRACK 45 AUDIO
    TITLE "6:cjc137_1033"
    INDEX 01 00:33:71
  TRACK 46 AUDIO
    TITLE "0:"
    INDEX 01 00:35:04
  TRACK 47 AUDIO
    TITLE "5:cjc137_1034"
    INDEX 01 00:35:15
  TRACK 48 AUDIO
    TITLE "0:"
    INDEX 01 00:36:15
  TRACK 49 AUDIO
    TITLE "4:cjc137_1035"
    INDEX 01 00:37:30
  TRACK 50 AUDIO
    TITLE "0:"
    INDEX 01 00:38:33
  TRACK 51 AUDIO
    TITLE "6:cjc137_1036"
    INDEX 01 00:38:43
  TRACK 52 AUDIO
    TITLE "0:"
    INDEX 01 00:39:35
  TRACK 53 AUDIO
    TITLE "5:cjc137_1037"
    INDEX 01 00:39:47
  TRACK 54 AUDIO
    TITLE "0:"
    INDEX 01 00:40:50
  TRACK 55 AUDIO
    TITLE "4:cjc137_1038"
    INDEX 01 00:41:59
  TRACK 56 AUDIO
    TITLE "0:"
    INDEX 01 00:42:61
  TRACK 57 AUDIO
    TITLE "6:cjc137_1039"
    INDEX 01 00:42:74
  TRACK 58 AUDIO
    TITLE "0:"
    INDEX 01 00:43:64
  TRACK 59 AUDIO
    TITLE "5:cjc137_1040"
    INDEX 01 00:43:70
  TRACK 60 AUDIO
    TITLE "0:"
    INDEX 01 00:45:02
  TRACK 61 AUDIO
    TITLE "4:cjc137_1041"
    INDEX 01 00:46:13
  TRACK 62 AUDIO
    TITLE "0:"
    INDEX 01 00:47:23
  TRACK 63 AUDIO
    TITLE "6:cjc137_1042"
    INDEX 01 00:47:32
  TRACK 64 AUDIO
    TITLE "0:"
    INDEX 01 00:48:48
  TRACK 65 AUDIO
    TITLE "5:cjc137_1043"
    INDEX 01 00:48:55
  TRACK 66 AUDIO
    TITLE "0:"
    INDEX 01 00:49:65
  TRACK 67 AUDIO
    TITLE "4:cjc137_1044"
    INDEX 01 00:51:01
  TRACK 68 AUDIO
    TITLE "0:"
    INDEX 01 00:52:04
  TRACK 69 AUDIO
    TITLE "6:cjc137_1045"
    INDEX 01 00:52:16
  TRACK 70 AUDIO
    TITLE "0:"
    INDEX 01 00:53:31
  TRACK 71 AUDIO
    TITLE "5:cjc137_1046"
    INDEX 01 00:53:39
  TRACK 72 AUDIO
    TITLE "0:"
    INDEX 01 00:54:44
  TRACK 73 AUDIO
    TITLE "4:cjc137_1047"
    INDEX 01 00:55:53
  TRACK 74 AUDIO
    TITLE "0:"
    INDEX 01 00:56:57
  TRACK 75 AUDIO
    TITLE "6:cjc137_1048"
    INDEX 01 00:56:71
  TRACK 76 AUDIO
    TITLE "0:"
    INDEX 01 00:58:07
  TRACK 77 AUDIO
    TITLE "5:cjc137_1049"
    INDEX 01 00:58:15
  TRACK 78 AUDIO
    TITLE "0:"
    INDEX 01 00:59:18
  TRACK 79 AUDIO
    TITLE "4:cjc137_1050"
    INDEX 01 01:00:33
  TRACK 80 AUDIO
    TITLE "0:"
    INDEX 01 01:01:58
  TRACK 81 AUDIO
    TITLE "6:cjc137_1051"
    INDEX 01 01:01:66
  TRACK 82 AUDIO
    TITLE "0:"
    INDEX 01 01:02:57
  TRACK 83 AUDIO
    TITLE "5:cjc137_1052"
    INDEX 01 01:02:65
  TRACK 84 AUDIO
    TITLE "0:"
    INDEX 01 01:04:15
